# xmcd
#
# Track frame offsets: 
#        150
#        13033
#        27727
#        43060
#        56883
#        70656
#        86919
#        100165
#        111896
#        125983
#        138622
#        156473
#        176269
#        194528
#        213846
#        230700
#        247591
#        276130
#        293421
#        318935
#
# Disc length: 4457 seconds
#
# Revision: 4
# Processed by: cddbd v1.5.2PL0 Copyright (c) Steve Scherf et al.
# Submitted via: ExactAudioCopy v1.3
#
DISCID=2b116714
DTITLE=Billie Holiday - Gold [CD2]
DYEAR=2005
DGENRE=Jazz
TTITLE0=Them There Eyes
TTITLE1=You Can't Lose A Broken Heart
TTITLE2=You're My Thrill
TTITLE3=Crazy He Calls Me
TTITLE4=Detour Ahead
TTITLE5=These Foolish Things
TTITLE6=You Go To My Head
TTITLE7=Love Me Or Leave Me
TTITLE8=Willow Weep For Me
TTITLE9=I Thought About You
TTITLE10=I've Got My Love To Keep Me Warm
TTITLE11=Come Rain Or Come Shine
TTITLE12=It Had To Be You
TTITLE13=What's New?
TTITLE14=Lady Sings The Blues
TTITLE15=I Cover The Waterfront (live)
TTITLE16=Body And Soul
TTITLE17=But Not For Me
TTITLE18=One For My Baby (And One More For The Road)
TTITLE19=I'm A Fool To Want You
EXTD=YEAR: 2005
EXTT0=
EXTT1=
EXTT2=
EXTT3=
EXTT4=
EXTT5=
EXTT6=
EXTT7=
EXTT8=
EXTT9=
EXTT10=
EXTT11=
EXTT12=
EXTT13=
EXTT14=
EXTT15=
EXTT16=
EXTT17=
EXTT18=
EXTT19=
PLAYORDER=
